# xmcd
#
# Track frame offsets:
#	2133
#	23504
#	41569
#	60854
#	81534
#	100335
#	121489
#	136052
#	150422
#	166622
#	181509
#	197577
#	213348
#	232115
#	249802
#	271638
#
# Disc length: 3851 seconds
#
# Revision: 7
# Processed by: cddbd v1.5.1PL0 Copyright (c) Steve Scherf et al.
# Submitted via: EasyCDDAExtractor 8.2.1.1
#
DISCID=c20eef10
DTITLE=сжайиамайгс мотгс - ле ацапг оти йамеис
DYEAR=2004
DGENRE=казйа
TTITLE0=цемехкиа
TTITLE1=еутувыс
TTITLE2=ока та с' ацапы
TTITLE3=циа лема
TTITLE4=ены бяевеи
TTITLE5=опыс
TTITLE6=ежуцес
TTITLE7=паяапомо
TTITLE8=еммоиа соу
TTITLE9=ейамес йоллатиа
TTITLE10=жхимопыяимг бяовг
TTITLE11=паки
TTITLE12=астеяи лоу
TTITLE13=йи ам пимы
TTITLE14=латиа лоу хакассес
TTITLE15=демдяо
EXTD=
EXTT0=
EXTT1=
EXTT2=
EXTT3=
EXTT4=
EXTT5=
EXTT6=
EXTT7=
EXTT8=
EXTT9=
EXTT10=
EXTT11=
EXTT12=
EXTT13=
EXTT14=
EXTT15=
PLAYORDER=
